<?xml version="1.0" standalone="no"?>
<!DOCTYPE svg PUBLIC "-//W3C//DTD SVG 20010904//EN"
 "http://www.w3.org/TR/2001/REC-SVG-20010904/DTD/svg10.dtd">
<svg version="1.0" xmlns="http://www.w3.org/2000/svg"
 width="512.000000pt" height="512.000000pt" viewBox="0 0 512.000000 512.000000"
 preserveAspectRatio="xMidYMid meet">

<g transform="translate(0.000000,512.000000) scale(0.100000,-0.100000)"
fill="#000000" stroke="none">
<path d="M2325 5109 c-339 -35 -648 -126 -945 -280 -255 -133 -445 -275 -655
-490 -205 -211 -330 -389 -460 -654 -123 -250 -194 -477 -237 -750 -31 -200
-31 -550 0 -750 43 -278 115 -502 242 -761 136 -276 283 -476 511 -699 210
-205 389 -330 654 -460 250 -123 477 -194 750 -237 200 -31 550 -31 750 0 273
43 500 114 750 237 265 130 444 255 654 460 228 223 375 423 511 699 127 259
199 483 242 761 31 200 31 550 0 750 -43 278 -115 502 -242 761 -136 276 -283
476 -511 699 -210 205 -389 330 -654 460 -249 122 -482 196 -747 236 -154 23
-474 33 -613 18z m875 -2084 l0 -225 41 40 c50 48 115 70 209 70 89 0 158 -22
197 -62 62 -63 63 -75 63 -549 l0 -429 -55 0 -55 0 0 418 c0 377 -2 420 -18
452 -25 50 -92 81 -175 82 -86 0 -128 -15 -171 -63 l-36 -39 0 -425 0 -425
-55 0 -55 0 0 690 0 690 55 0 55 0 0 -225z m-440 175 c36 -20 51 -38 75 -85
29 -58 30 -64 30 -205 0 -139 -1 -147 -28 -202 -33 -67 -85 -114 -144 -131
l-43 -11 51 -13 c66 -17 113 -54 141 -111 21 -43 23 -60 23 -212 0 -196 -11
-237 -80 -298 -58 -51 -100 -62 -231 -62 -168 0 -225 25 -272 120 -25 51 -27
66 -31 203 -4 164 -9 154 71 141 l36 -6 4 -122 c4 -139 20 -185 78 -224 32
-21 44 -23 133 -20 97 3 99 4 127 35 48 54 63 126 58 278 -4 114 -7 136 -28
173 -36 64 -82 82 -208 82 l-102 0 0 40 0 40 98 0 c128 0 175 21 212 95 23 46
25 60 25 195 0 158 -7 186 -57 223 -19 14 -48 21 -102 25 -98 6 -139 -3 -180
-38 -44 -39 -56 -89 -56 -228 l0 -110 -52 12 -53 12 0 129 c0 116 3 135 24
178 13 26 38 59 57 73 61 47 97 54 244 51 122 -2 139 -5 180 -27z m-730 -815
l0 -515 -55 0 -55 0 0 470 0 470 -174 0 c-156 0 -176 -2 -197 -19 l-24 -19 0
-387 0 -387 24 -19 c20 -17 40 -19 163 -19 l140 0 -6 -22 c-3 -13 -6 -33 -6
-45 0 -23 -1 -23 -166 -23 -183 0 -220 9 -245 58 -10 21 -14 113 -17 408 -4
406 2 480 39 521 33 34 84 41 342 42 l237 1 0 -515z"/>
</g>
</svg>
